HIERARCHY
ROOT Hips
{
    OFFSET   0.000000   0.000000   0.000000
    CHANNELS 6 Xposition Yposition Zposition Zrotation Xrotation Yrotation
    JOINT Chest
    {
        OFFSET   0.000000   8.007240   0.000000
        CHANNELS 3 Zrotation Xrotation Yrotation
        JOINT Chest2
        {
            OFFSET   0.000000  22.077100   0.000000
            CHANNELS 3 Zrotation Xrotation Yrotation
            JOINT Neck
            {
                OFFSET   0.000000  23.254800   0.000000
                CHANNELS 3 Zrotation Xrotation Yrotation
                JOINT Head
                {
                    OFFSET   0.000000  14.370000   1.956600
                    CHANNELS 3 Zrotation Xrotation Yrotation
                    End Site
                    {
                        OFFSET   0.000000  19.566000   0.000000
                    }
                }
            }
            JOINT LeftCollar
            {
                OFFSET   3.911900  19.017000  -0.467064
                CHANNELS 3 Zrotation Xrotation Yrotation
                JOINT LeftShoulder
                {
                    OFFSET  10.383700   0.000000   0.000000
                    CHANNELS 3 Zrotation Xrotation Yrotation
                    JOINT LeftElbow
                    {
                        OFFSET  26.662100   0.001476   0.000517
                        CHANNELS 3 Zrotation Xrotation Yrotation
                        JOINT LeftWrist
                        {
                            OFFSET  28.869000  -0.000025  -0.000106
                            CHANNELS 3 Zrotation Xrotation Yrotation
                            JOINT LeftFinger0
                            {
                                OFFSET   2.044660  -2.323460   3.252850
                                CHANNELS 3 Zrotation Xrotation Yrotation
                                JOINT LeftFinger01
                                {
                                    OFFSET   3.088130   0.000000   0.000000
                                    CHANNELS 3 Zrotation Xrotation Yrotation
                                    JOINT LeftFinger02
                                    {
                                        OFFSET   2.639460   0.000000   0.000000
                                        CHANNELS 3 Zrotation Xrotation Yrotation
                                        End Site
                                        {
                                            OFFSET   2.582190   0.000000   0.000000
                                        }
                                    }
                                }
                            }
                            JOINT LeftFinger1
                            {
                                OFFSET   8.364480   0.000000   3.252850
                                CHANNELS 3 Zrotation Xrotation Yrotation
                                JOINT LeftFinger11
                                {
                                    OFFSET   4.646930   0.000000   0.000000
                                    CHANNELS 3 Zrotation Xrotation Yrotation
                                    JOINT LeftFinger12
                                    {
                                        OFFSET   2.323460   0.000000   0.000000
                                        CHANNELS 3 Zrotation Xrotation Yrotation
                                        End Site
                                        {
                                            OFFSET   2.273050   0.000000   0.000000
                                        }
                                    }
                                }
                            }
                            JOINT LeftFinger2
                            {
                                OFFSET   8.364490   0.000015   1.078090
                                CHANNELS 3 Zrotation Xrotation Yrotation
                                JOINT LeftFinger21
                                {
                                    OFFSET   5.111620   0.000000   0.000000
                                    CHANNELS 3 Zrotation Xrotation Yrotation
                                    JOINT LeftFinger22
                                    {
                                        OFFSET   2.788160   0.000016   0.000000
                                        CHANNELS 3 Zrotation Xrotation Yrotation
                                        End Site
                                        {
                                            OFFSET   2.727660   0.000000   0.000000
                                        }
                                    }
                                }
                            }
                            JOINT LeftFinger3
                            {
                                OFFSET   7.899780   0.000017  -1.078090
                                CHANNELS 3 Zrotation Xrotation Yrotation
                                JOINT LeftFinger31
                                {
                                    OFFSET   4.646930   0.000000   0.000000
                                    CHANNELS 3 Zrotation Xrotation Yrotation
                                    JOINT LeftFinger32
                                    {
                                        OFFSET   2.323470   0.000000   0.000000
                                        CHANNELS 3 Zrotation Xrotation Yrotation
                                        End Site
                                        {
                                            OFFSET   2.273050   0.000000   0.000000
                                        }
                                    }
                                }
                            }
                            JOINT LeftFinger4
                            {
                                OFFSET   7.435090   0.000000  -3.252850
                                CHANNELS 3 Zrotation Xrotation Yrotation
                                JOINT LeftFinger41
                                {
                                    OFFSET   3.717550   0.000000   0.000000
                                    CHANNELS 3 Zrotation Xrotation Yrotation
                                    JOINT LeftFinger42
                                    {
                                        OFFSET   1.858770   0.000000   0.000000
                                        CHANNELS 3 Zrotation Xrotation Yrotation
                                        End Site
                                        {
                                            OFFSET   1.818440   0.000000   0.000000
                                        }
                                    }
                                }
                            }
                        }
                    }
                }
            }
            JOINT RightCollar
            {
                OFFSET  -3.911900  19.017000  -0.467063
                CHANNELS 3 Zrotation Xrotation Yrotation
                JOINT RightShoulder
                {
                    OFFSET -10.383700   0.000019   0.000000
                    CHANNELS 3 Zrotation Xrotation Yrotation
                    JOINT RightElbow
                    {
                        OFFSET -26.662100   0.001175   0.000102
                        CHANNELS 3 Zrotation Xrotation Yrotation
                        JOINT RightWrist
                        {
                            OFFSET -28.869000   0.000016  -0.000079
                            CHANNELS 3 Zrotation Xrotation Yrotation
                            JOINT RightFinger0
                            {
                                OFFSET  -2.044660  -2.323490   3.252850
                                CHANNELS 3 Zrotation Xrotation Yrotation
                                JOINT RightFinger01
                                {
                                    OFFSET  -3.088140   0.000000   0.000000
                                    CHANNELS 3 Zrotation Xrotation Yrotation
                                    JOINT RightFinger02
                                    {
                                        OFFSET  -2.639460   0.000000   0.000000
                                        CHANNELS 3 Zrotation Xrotation Yrotation
                                        End Site
                                        {
                                            OFFSET  -2.582190   0.000000   0.000000
                                        }
                                    }
                                }
                            }
                            JOINT RightFinger1
                            {
                                OFFSET  -8.364480   0.000000   3.252850
                                CHANNELS 3 Zrotation Xrotation Yrotation
                                JOINT RightFinger11
                                {
                                    OFFSET  -4.646930   0.000000   0.000000
                                    CHANNELS 3 Zrotation Xrotation Yrotation
                                    JOINT RightFinger12
                                    {
                                        OFFSET  -2.323470   0.000000   0.000000
                                        CHANNELS 3 Zrotation Xrotation Yrotation
                                        End Site
                                        {
                                            OFFSET  -2.273050   0.000000   0.000000
                                        }
                                    }
                                }
                            }
                            JOINT RightFinger2
                            {
                                OFFSET  -8.364480   0.000000   1.078090
                                CHANNELS 3 Zrotation Xrotation Yrotation
                                JOINT RightFinger21
                                {
                                    OFFSET  -5.111620   0.000000   0.000000
                                    CHANNELS 3 Zrotation Xrotation Yrotation
                                    JOINT RightFinger22
                                    {
                                        OFFSET  -2.788160   0.000000   0.000000
                                        CHANNELS 3 Zrotation Xrotation Yrotation
                                        End Site
                                        {
                                            OFFSET  -2.727660   0.000000   0.000000
                                        }
                                    }
                                }
                            }
                            JOINT RightFinger3
                            {
                                OFFSET  -7.899780   0.000000  -1.078090
                                CHANNELS 3 Zrotation Xrotation Yrotation
                                JOINT RightFinger31
                                {
                                    OFFSET  -4.646930   0.000000   0.000000
                                    CHANNELS 3 Zrotation Xrotation Yrotation
                                    JOINT RightFinger32
                                    {
                                        OFFSET  -2.323470   0.000000   0.000000
                                        CHANNELS 3 Zrotation Xrotation Yrotation
                                        End Site
                                        {
                                            OFFSET  -2.273050   0.000000   0.000000
                                        }
                                    }
                                }
                            }
                            JOINT RightFinger4
                            {
                                OFFSET  -7.435090   0.000000  -3.252850
                                CHANNELS 3 Zrotation Xrotation Yrotation
                                JOINT RightFinger41
                                {
                                    OFFSET  -3.717550   0.000000   0.000000
                                    CHANNELS 3 Zrotation Xrotation Yrotation
                                    JOINT RightFinger42
                                    {
                                        OFFSET  -1.858770   0.000000   0.000000
                                        CHANNELS 3 Zrotation Xrotation Yrotation
                                        End Site
                                        {
                                            OFFSET  -1.818440   0.000000   0.000000
                                        }
                                    }
                                }
                            }
                        }
                    }
                }
            }
        }
    }
    JOINT LeftHip
    {
        OFFSET   9.783040   0.000000   0.000000
        CHANNELS 3 Zrotation Xrotation Yrotation
        JOINT LeftKnee
        {
            OFFSET   0.000032 -41.789100  -0.002222
            CHANNELS 3 Zrotation Xrotation Yrotation
            JOINT LeftAnkle
            {
                OFFSET   0.000087 -41.133200  -0.000135
                CHANNELS 3 Zrotation Xrotation Yrotation
                JOINT LeftToe
                {
                    OFFSET   0.000000  -6.358960  14.674500
                    CHANNELS 3 Zrotation Xrotation Yrotation
                    End Site
                    {
                        OFFSET   0.000000   0.000000   3.913200
                    }
                }
            }
        }
    }
    JOINT RightHip
    {
        OFFSET  -9.783040   0.000000   0.000000
        CHANNELS 3 Zrotation Xrotation Yrotation
        JOINT RightKnee
        {
            OFFSET   0.000047 -41.789100  -0.000896
            CHANNELS 3 Zrotation Xrotation Yrotation
            JOINT RightAnkle
            {
                OFFSET  -0.000117 -41.133300  -0.000248
                CHANNELS 3 Zrotation Xrotation Yrotation
                JOINT RightToe
                {
                    OFFSET   0.000000  -6.358970  14.674500
                    CHANNELS 3 Zrotation Xrotation Yrotation
                    End Site
                    {
                        OFFSET   0.000000   0.000000   3.913200
                    }
                }
            }
        }
    }
}
MOTION
Frames: 4
Frame Time:   0.016667
 -4.066210  87.375900   1.901030   3.108680 -16.799200   2.618690   0.244850  10.699900  -2.346430   0.970745  21.380000  -4.871390  11.661400  -1.149740   0.235883  19.175900  -2.044630  10.218200  -3.062120  -0.625652   6.454840 -25.877400  50.680200 -20.777100   5.293560  28.142500 -72.370600  69.074100 -11.747400 -31.381100  76.999700  50.392100 -110.896000  20.988800  -0.003072   0.001328  15.001500  -0.001773   0.000326  -8.810510   0.776227  -4.995260  -7.236320   0.001474   0.000320  -5.065420   0.010911   0.000645 -18.508700   1.608460  -4.792990 -18.576000   0.002588   0.003933 -12.371600  -0.001451  -0.007340 -23.841500  -0.005228   0.012016 -23.841500  -0.000943  -0.004833 -15.878500  -0.000437  -0.000894 -24.952600  -0.005490   0.011928 -37.428900   0.009753  -0.005177 -24.927600   0.000270   0.004484   0.378452  -3.388390   8.818400  40.345600  52.573600  -1.707050  -8.482910  18.834500  75.127300 -68.629300  -0.969664  40.297500 -62.344100  53.679500 108.918000 -18.274400   0.000890  -0.000059 -14.137500   0.000590  -0.003449  11.824700   2.280520  10.761400   9.850530   0.005364  -0.004933   6.895370  -0.003387  -0.004560  14.868800   1.550140   5.817570  14.947500  -0.002213   0.002570   9.955060  -0.000922   0.005301  19.002500   1.966650   5.690670  19.100300  -0.000544  -0.001506  12.720800   0.000210  -0.000661  19.203400   1.023680   2.936260  28.844500  -0.003886  -0.005890  19.210400  -0.007118  -0.002651   3.050120  19.541300   4.907710   1.087550   1.652660  10.955700  -8.323100  -2.751680   0.203581  -0.000000   0.000000  -0.000000  -5.520660   1.357240  -7.055630   5.981990  34.141400 -12.502200  -1.352420 -18.890500   5.748990  -0.000000   0.000000  -0.000000
 -4.091160  87.377500   1.909850   3.107740 -16.759600   2.650930   0.232247  10.668700  -2.330630   0.940551  21.318400  -4.835470  11.660600  -1.134470   0.233396  19.171100  -2.017170  10.150000  -3.062850  -0.580479   6.454330 -25.954500  50.627600 -20.699800   5.260800  28.147200 -72.346800  69.084600 -11.722700 -31.489300  77.018800  50.389400 -110.897000  20.991000  -0.003081   0.001278  15.001500  -0.001754   0.000300  -8.818740   0.780130  -5.015110  -7.243290   0.001460   0.000329  -5.070310   0.011075   0.000645 -18.576200   1.622300  -4.809810 -18.644300   0.002624   0.004044 -12.417100  -0.001443  -0.007299 -23.952600  -0.014722   0.033201 -23.952600  -0.000998  -0.004875 -15.952500  -0.000473  -0.000914 -24.999800  -0.015312   0.032959 -37.499700   0.009861  -0.005235 -24.974800   0.000279   0.004483   0.399519  -3.336530   8.795190  40.287700  52.574900  -1.641210  -8.460840  18.826200  75.089000 -68.642100  -1.050370  40.295800 -62.349600  53.679300 108.918000 -18.274600   0.000856  -0.000067 -14.138100   0.000565  -0.003483  11.869800   2.274680  10.693700   9.885850   0.005437  -0.004965   6.920100  -0.003364  -0.004580  14.951900   1.531120   5.716900  15.028100  -0.002252   0.002605  10.008800  -0.000946   0.005246  19.067300   1.938190   5.593050  19.161800  -0.000554  -0.001559  12.761800   0.000220  -0.000661  19.248400   1.017920   2.912310  28.911900  -0.003930  -0.005953  19.255400  -0.007198  -0.002595   3.075010  19.512600   4.901060   1.092120   1.629770  10.936600  -8.339630  -2.739160   0.195044  -0.000000   0.000000  -0.000000  -5.494260   1.332470  -7.108090   5.950070  34.132600 -12.433200  -1.346580 -18.892400   5.706420   0.000000   0.000000   0.000000
 -4.112470  87.379800   1.918910   3.103880 -16.715200   2.665120   0.216377  10.632900  -2.310550   0.901681  21.247700  -4.790000  11.656100  -1.124220   0.231909  19.166300  -1.998850  10.095800  -3.066150  -0.531721   6.454210 -26.033500  50.575700 -20.617200   5.231970  28.141100 -72.331300  69.083800 -11.691100 -31.609800  77.036800  50.387400 -110.898000  20.992500  -0.003089   0.001227  15.001400  -0.001735   0.000276  -8.837330   0.783468  -5.025750  -7.258670   0.001446   0.000338  -5.081080   0.011239   0.000644 -18.648500   1.630280  -4.818610 -18.717000   0.002657   0.004153 -12.465600  -0.001434  -0.007256 -24.070600  -0.028966   0.064888 -24.070600  -0.001053  -0.004915 -16.031000  -0.000508  -0.000934 -25.057700  -0.030042   0.064415 -37.586500   0.009971  -0.005289 -25.032600   0.000290   0.004483   0.417784  -3.271860   8.774150  40.193500  52.579000  -1.527780  -8.435300  18.827000  75.042900 -68.688100  -1.140310  40.277300 -62.350400  53.679300 108.918000 -18.274700   0.000822  -0.000069 -14.138300   0.000540  -0.003524  11.914400   2.268830  10.626700   9.920780   0.005509  -0.004997   6.944550  -0.003341  -0.004600  15.037400   1.518120   5.632780  15.112100  -0.002292   0.002639  10.064700  -0.000965   0.005189  19.141000   1.918360   5.509740  19.233300  -0.000562  -0.001611  12.809400   0.000230  -0.000661  19.299300   1.009080   2.879020  28.986900  -0.003972  -0.006017  19.305300  -0.007278  -0.002539   3.092140  19.475400   4.898000   1.094600   1.618900  10.921500  -8.353230  -2.733250   0.192479  -0.000000   0.000000  -0.000000  -5.474260   1.302620  -7.205400   5.882020  34.129800 -12.300000  -1.339160 -18.894100   5.670440   0.000000   0.000000   0.000000
 -4.131940  87.384200   1.927330   3.098140 -16.663800   2.663870   0.198538  10.591700  -2.288060   0.857603  21.166300  -4.739090  11.632500  -1.126530   0.232187  19.130600  -2.003500  10.069800  -3.075110  -0.476800   6.464250 -26.113800  50.510300 -20.522900   5.232300  28.139800 -72.341400  69.065000 -11.647200 -31.714100  77.043600  50.386100 -110.898000  20.993600  -0.003104   0.001275  15.001400  -0.001729   0.000260  -8.896430   0.787629  -5.014260  -7.307130   0.001438   0.000334  -5.115000   0.011388   0.000644 -18.732100   1.630090  -4.806410 -18.800300   0.002693   0.004269 -12.521000  -0.001416  -0.007214 -24.184100  -0.054993   0.122143 -24.184100  -0.001109  -0.004961 -16.106600  -0.000540  -0.000954 -25.129600  -0.056973   0.121240 -37.694500   0.010096  -0.005326 -25.104500   0.000292   0.004478   0.430821  -3.193640   8.763720  40.085400  52.604400  -1.394500  -8.423730  18.843100  74.983200 -68.779500  -1.239610  40.229900 -62.348700  53.679200 108.918000 -18.274700   0.000772  -0.000073 -14.138700   0.000518  -0.003560  11.939700   2.260760  10.567400   9.940230   0.005577  -0.005026   6.958160  -0.003315  -0.004611  15.082300   1.518270   5.614210  15.156900  -0.002324   0.002663  10.094500  -0.000978   0.005132  19.206600   1.919100   5.489280  19.299000  -0.000568  -0.001667  12.853100   0.000226  -0.000662  19.332100   0.984518   2.803890  29.034200  -0.004010  -0.006075  19.336800  -0.007351  -0.002488   3.104410  19.427000   4.901330   1.098730   1.618300  10.907800  -8.364100  -2.733220   0.196595   0.000000   0.000000  -0.000000  -5.444970   1.262160  -7.309040   5.789930  34.128300 -12.142800  -1.339080 -18.892700   5.633490  -0.000000   0.000000  -0.000000
